<svg xmlns="http://www.w3.org/2000/svg"  viewBox="0 0 50 50" width="500px" height="500px"><path d="M17.616,44.495l5.448-9.429	l-2.347-4.067h-3.295l-5.737,9.936c-0.384,0.665-1.348,0.665-1.732,0L1.04,25.499c-0.179-0.309-0.179-0.691,0-1.001L9.952,9.062	c0.384-0.664,1.348-0.665,1.732,0l5.737,9.935h3.296l2.345-4.064l-5.448-9.433c-0.384-0.665,0.097-1.501,0.867-1.501h18.065	c0.356,0,0.687,0.191,0.865,0.501l9.236,15.999c0.384,0.665-0.097,1.499-0.865,1.499l-11.904,0.008l-1.727,2.992l1.731,3h11.901	c0.768,0,1.249,0.835,0.865,1.5l-9.236,15.999c-0.179,0.311-0.509,0.5-0.865,0.5H18.483C17.713,45.995,17.232,45.161,17.616,44.495z M34.811,43.995L24.419,25.997H3.637l7.181,12.439l1.984-3.435l-2.597-4.501c-0.384-0.665,0.097-1.5,0.867-1.5h10.224	c0.356,0,0.687,0.192,0.865,0.501l5.772,10c0.384,0.665-0.097,1.499-0.865,1.499l-5.124,0.001l-1.729,2.995H34.811z M36.545,42.998	l7.507-13.001h-4.396l-2.599,4.501c-0.384,0.665-1.348,0.664-1.732-0.001l-5.193-9c-0.179-0.309-0.179-0.689,0-0.999l5.193-9	c0.384-0.665,1.348-0.667,1.732-0.001l2.599,4.5h4.395L36.544,6.998l-10.392,18L36.545,42.998z M24.42,23.997L34.812,5.998H20.213	l1.731,2.999l5.124,0.001c0.768,0,1.249,0.833,0.865,1.499l-5.772,10c-0.179,0.309-0.509,0.5-0.865,0.5H11.072	c-0.769,0-1.251-0.833-0.867-1.499l2.596-4.501l-1.983-3.435l-7.18,12.435H24.42z"/></svg>